# xmcd
#
# Track frame offsets: 
#        150
#        7101
#        24536
#        33444
#        43318
#        48275
#        58229
#        70162
#        87581
#        98864
#        117486
#        135260
#        159025
#        182990
#        200950
#        221096
#        237365
#        248665
#        275776
#
# Disc length: 4095 seconds
#
# Revision: 0
# Processed by: cddbd v1.5.2PL0 Copyright (c) Steve Scherf et al.
# Submitted via: ExactAudioCopy v0.99pb5
#
DISCID=1e0ffd13
DTITLE=RegiNew - iSpit The Mixtape
DYEAR=2009
DGENRE=Rap
TTITLE0=Intro
TTITLE1=iSpit
TTITLE2=iSpit (Lp Snippet Prod. by BadMind)
TTITLE3=iGrind (Lp Snippet Prod. by BadMind)
TTITLE4=Curves (Lp Snippet Prod. by ThoneBoy)
TTITLE5=This Summer
TTITLE6=Major Moves feat. Lil Trouble
TTITLE7=Mad Rapper
TTITLE8=Demons
TTITLE9=Dont know what to do
TTITLE10=My Day
TTITLE11=Flip da strip feat. Change and JB
TTITLE12=Goin Down
TTITLE13=Superhero
TTITLE14=Give me ya luv
TTITLE15=Slow Up (Prod. by BadMind)
TTITLE16=Top Notch (Chopped and Screwed by DJ KSin)
TTITLE17=Feel Me (Chopped and Screwed by DJ KSin)
TTITLE18=Big Poppa (Chopped and Screwed by XFonz)
EXTD=
EXTT0=
EXTT1=
EXTT2=
EXTT3=
EXTT4=
EXTT5=
EXTT6=
EXTT7=
EXTT8=
EXTT9=
EXTT10=
EXTT11=
EXTT12=
EXTT13=
EXTT14=
EXTT15=
EXTT16=
EXTT17=
EXTT18=
PLAYORDER=
